<svg xmlns="http://www.w3.org/2000/svg" width="500" height="500" viewBox="0 0 500 500">
<g>
<path d="M 125.00 287.83 C106.34,276.86 94.66,265.81 88.94,253.70 C80.52,235.90 87.73,216.59 105.07,210.48 C111.04,208.37 120.57,208.62 125.86,211.02 C128.26,212.11 130.57,213.00 131.00,213.00 C131.43,213.00 131.83,210.07 131.88,206.50 L 131.98 200.00 L 108.49 200.00 L 85.00 200.00 L 85.00 197.52 L 85.00 195.04 L 108.25 194.77 L 131.50 194.50 L 131.81 190.19 C132.08,186.40 132.39,185.91 134.31,186.19 C136.11,186.44 136.55,187.25 136.81,190.75 L 137.11 195.00 L 143.56 195.00 C149.76,195.00 150.00,195.09 150.00,197.50 C150.00,199.91 149.76,200.00 143.60,200.00 L 137.19 200.00 L 136.85 204.75 C136.66,207.36 136.63,210.44 136.80,211.59 L 137.10 213.68 L 141.72 211.34 C149.01,207.65 158.91,208.01 167.14,212.27 C178.16,217.97 184.13,229.77 182.53,242.65 C180.72,257.08 166.77,273.95 146.93,285.69 C141.17,289.10 135.80,292.10 134.98,292.36 C134.17,292.62 129.68,290.58 125.00,287.83 ZM 144.14 282.75 C156.07,275.99 170.20,262.39 174.51,253.50 C178.30,245.66 178.66,233.86 175.29,227.50 C167.69,213.14 149.98,208.76 136.97,218.02 L 134.08 220.08 L 130.29 217.61 C119.49,210.59 105.27,212.24 97.17,221.45 C91.70,227.69 90.58,230.75 90.59,239.50 C90.60,246.48 90.99,248.27 93.71,253.54 C97.41,260.73 104.16,268.47 111.88,274.39 C117.37,278.60 132.77,288.00 134.16,288.00 C134.55,288.00 139.04,285.64 144.14,282.75 ZM 196.02 277.81 C190.64,274.16 188.00,269.53 188.00,263.75 C188.00,254.61 193.40,248.10 202.24,246.56 C206.57,245.81 213.28,247.55 215.49,249.99 C216.87,251.51 216.82,251.85 215.01,253.49 C213.07,255.25 212.93,255.25 210.92,253.43 C208.09,250.87 201.87,250.96 198.29,253.62 C192.36,258.02 192.01,268.51 197.66,272.95 C201.12,275.67 207.84,275.70 211.26,273.01 C213.72,271.07 213.86,271.07 216.04,272.84 L 218.29 274.66 L 214.94 277.04 C209.92,280.62 200.70,280.99 196.02,277.81 ZM 225.00 263.36 L 225.00 247.00 L 236.00 247.00 L 247.00 247.00 L 247.00 249.50 C247.00,251.97 246.90,252.00 238.50,252.00 L 230.00 252.00 L 230.00 255.96 L 230.00 259.92 L 237.75 260.21 C244.92,260.48 245.52,260.67 245.82,262.75 C246.13,264.92 245.87,265.00 238.07,265.00 L 230.00 265.00 L 230.00 269.46 L 230.00 273.92 L 238.75 274.21 C247.34,274.49 247.50,274.55 247.50,277.00 L 247.50 279.50 L 236.25 279.61 L 225.00 279.71 L 225.00 263.36 ZM 255.00 263.31 L 255.00 246.87 L 258.18 247.19 C260.99,247.46 262.38,248.92 269.93,259.48 L 278.50 271.47 L 278.78 259.23 L 279.06 247.00 L 281.53 247.00 L 284.00 247.00 L 284.00 263.25 L 284.00 279.50 L 280.95 279.61 C278.15,279.71 277.20,278.71 269.20,267.33 L 260.50 254.94 L 260.22 267.34 L 259.94 279.75 L 257.47 279.75 L 255.00 279.75 L 255.00 263.31 ZM 301.78 266.03 L 301.50 252.50 L 296.25 252.20 C291.41,251.92 291.00,251.70 291.00,249.42 L 291.00 246.94 L 304.25 247.22 C317.13,247.49 317.51,247.56 317.82,249.75 C318.12,251.85 317.77,252.00 312.57,252.00 L 307.00 252.00 L 307.00 265.99 L 307.00 279.98 L 304.53 279.77 L 302.05 279.57 L 301.78 266.03 ZM 325.00 263.28 L 325.00 247.00 L 332.03 247.00 C340.77,247.00 345.24,248.75 346.93,252.83 C348.61,256.88 347.26,260.88 343.31,263.56 L 340.28 265.61 L 344.60 272.27 C348.99,279.04 348.98,280.71 344.54,279.60 C343.00,279.21 340.88,276.77 338.39,272.51 C335.46,267.50 334.06,266.00 332.29,266.00 C330.12,266.00 330.00,266.37 330.00,272.99 C330.00,279.83 329.95,279.97 327.50,279.77 L 325.00 279.56 L 325.00 263.28 ZM 340.43 259.43 C342.27,257.59 342.37,256.56 340.96,253.93 C340.15,252.42 338.85,252.00 334.96,252.00 L 330.00 252.00 L 330.00 256.50 L 330.00 261.00 L 334.43 261.00 C337.12,261.00 339.47,260.38 340.43,259.43 ZM 356.57 279.24 C356.26,278.92 356.00,271.54 356.00,262.83 L 356.00 247.00 L 367.00 247.00 L 378.00 247.00 L 378.00 249.46 C378.00,251.85 377.77,251.93 369.75,252.21 L 361.50 252.50 L 361.19 256.21 L 360.88 259.91 L 368.69 260.21 C375.88,260.48 376.53,260.68 376.81,262.71 C377.11,264.80 376.73,264.93 369.31,265.21 L 361.50 265.50 L 361.50 270.00 L 361.50 274.50 L 367.00 274.21 C370.02,274.05 373.99,274.19 375.81,274.52 C378.51,275.00 379.07,275.52 378.81,277.31 C378.51,279.40 378.00,279.51 367.82,279.66 C361.95,279.74 356.89,279.55 356.57,279.24 ZM 222.46 235.17 C212.85,230.69 211.33,217.66 219.68,211.29 C222.65,209.03 224.31,208.54 228.90,208.55 C237.72,208.58 243.14,213.61 243.36,221.96 C243.64,232.87 232.56,239.87 222.46,235.17 ZM 234.70 230.50 C237.78,228.34 239.34,223.03 237.96,219.40 C236.06,214.40 234.11,213.00 229.02,213.00 C222.68,213.00 219.50,216.23 219.50,222.67 C219.50,226.36 220.00,227.61 222.31,229.59 C225.57,232.40 231.38,232.82 234.70,230.50 ZM 300.60 235.96 C296.50,234.73 292.15,230.22 290.83,225.82 C289.34,220.86 291.84,213.96 296.26,210.81 C300.31,207.93 308.36,207.70 312.41,210.35 C315.02,212.06 315.11,212.32 313.60,213.83 C312.26,215.17 311.62,215.24 310.00,214.23 C307.30,212.55 301.90,212.68 299.30,214.50 C296.09,216.75 294.50,222.39 296.04,226.10 C296.72,227.74 298.21,229.74 299.36,230.54 C302.11,232.47 307.90,232.40 310.09,230.42 C311.49,229.15 312.26,229.07 314.00,230.00 C316.07,231.11 316.09,231.25 314.43,233.07 C313.48,234.13 311.08,235.44 309.10,235.99 C304.97,237.14 304.53,237.14 300.60,235.96 ZM 346.50 235.53 C332.50,230.45 334.83,210.81 349.72,208.43 C352.94,207.91 354.92,208.27 358.47,209.98 C374.77,217.88 363.59,241.72 346.50,235.53 ZM 357.70 230.50 C358.88,229.67 360.35,227.46 360.97,225.58 C364.36,215.31 351.35,208.04 344.39,216.32 C339.13,222.57 343.60,232.00 351.83,232.00 C353.88,232.00 356.52,231.32 357.70,230.50 ZM 371.75 235.34 C367.61,233.62 367.24,232.88 369.58,230.93 C370.82,229.90 371.57,229.88 373.07,230.81 C376.84,233.17 382.00,231.70 382.00,228.26 C382.00,227.53 379.86,226.01 377.25,224.89 C374.64,223.77 371.71,222.14 370.75,221.27 C368.84,219.54 368.44,214.91 369.96,212.07 C372.10,208.08 381.72,206.86 385.61,210.09 C386.85,211.12 386.82,211.54 385.37,213.14 C384.14,214.50 383.35,214.71 382.41,213.93 C381.71,213.34 379.64,213.01 377.82,213.18 C375.04,213.45 374.50,213.90 374.50,215.97 C374.50,217.96 375.32,218.74 378.65,219.98 C386.23,222.78 388.71,226.93 385.92,232.15 C384.86,234.13 379.30,237.05 376.78,236.95 C376.08,236.92 373.81,236.20 371.75,235.34 ZM 394.50 236.19 C393.40,235.81 391.60,234.96 390.50,234.31 C388.65,233.20 388.62,232.99 390.13,231.46 C391.42,230.16 392.20,230.04 393.82,230.90 C396.71,232.45 400.53,232.27 401.99,230.51 C403.89,228.22 402.50,226.23 398.09,224.91 C387.66,221.78 386.60,210.29 396.57,208.42 C400.46,207.69 407.00,209.59 407.00,211.46 C407.00,213.36 404.34,215.35 403.53,214.05 C402.55,212.46 396.41,212.80 394.98,214.52 C393.24,216.62 395.80,219.32 401.02,220.89 C410.80,223.82 409.68,234.86 399.45,236.42 C397.83,236.67 395.60,236.56 394.50,236.19 ZM 190.00 222.50 L 190.00 209.00 L 192.50 209.00 C194.86,209.00 195.00,209.30 195.00,214.50 L 195.00 220.00 L 201.50 220.00 L 208.00 220.00 L 208.00 214.50 C208.00,209.30 208.14,209.00 210.50,209.00 L 213.00 209.00 L 213.00 222.50 L 213.00 236.00 L 210.50 236.00 C208.11,236.00 208.00,235.73 208.00,230.00 L 208.00 224.00 L 201.50 224.00 L 195.00 224.00 L 195.00 230.00 C195.00,235.73 194.89,236.00 192.50,236.00 L 190.00 236.00 L 190.00 222.50 ZM 245.00 222.50 L 245.00 209.00 L 247.50 209.00 L 250.00 209.00 L 250.00 220.50 L 250.00 232.00 L 256.00 232.00 C261.33,232.00 262.00,232.22 262.00,234.00 C262.00,235.84 261.33,236.00 253.50,236.00 L 245.00 236.00 L 245.00 222.50 ZM 271.00 230.22 C271.00,224.88 270.62,223.92 266.00,217.50 C263.25,213.68 261.00,210.21 261.00,209.78 C261.00,209.35 262.12,209.00 263.49,209.00 C265.38,209.00 266.78,210.21 269.24,213.98 C271.03,216.72 272.82,218.97 273.21,218.98 C273.60,218.99 275.39,216.75 277.19,214.00 C279.84,209.95 281.01,209.00 283.29,209.00 C286.48,209.00 286.63,208.56 280.29,217.64 C276.37,223.24 276.00,224.31 276.00,229.89 C276.00,235.74 275.89,236.00 273.50,236.00 C271.12,236.00 271.00,235.72 271.00,230.22 ZM 317.00 222.50 L 317.00 209.00 L 324.39 209.00 C334.17,209.00 336.59,210.92 336.12,218.30 C336.05,219.29 334.81,221.20 333.36,222.55 L 330.71 224.99 L 334.37 230.50 L 338.02 236.00 L 335.02 236.00 C332.42,236.00 331.60,235.26 328.91,230.50 C326.85,226.85 325.17,225.00 323.90,225.00 C322.26,225.00 322.00,225.76 322.00,230.50 C322.00,235.70 321.86,236.00 319.50,236.00 L 317.00 236.00 L 317.00 222.50 ZM 331.07 218.42 C333.17,215.89 330.97,213.55 326.15,213.19 C322.00,212.89 322.00,212.89 322.00,216.44 C322.00,219.91 322.10,220.00 325.88,220.00 C328.20,220.00 330.28,219.36 331.07,218.42 Z" fill="rgba(0,0,0,1)"/>
</g>
</svg>