<svg xmlns="http://www.w3.org/2000/svg" width="500" height="500" viewBox="0 0 500 500">
<g>
<path d="M 247.50 407.65 C241.15,404.00 233.76,399.84 228.50,396.96 C218.05,391.24 216.65,390.41 203.94,382.51 C188.11,372.67 172.94,361.39 161.54,351.00 C151.47,341.83 146.74,336.91 138.93,327.50 C129.27,315.86 127.33,313.14 121.81,303.50 C117.75,296.42 116.06,292.98 112.97,285.50 C107.11,271.31 104.43,253.12 106.06,238.50 C107.76,223.18 110.47,215.01 119.10,199.17 C122.63,192.69 135.19,179.69 142.79,174.65 C160.39,162.98 177.92,158.13 198.00,159.36 C212.42,160.25 220.25,162.45 234.30,169.56 C238.04,171.45 241.53,173.00 242.05,173.00 C242.62,173.00 243.00,164.80 243.00,152.51 L 243.00 132.01 L 174.25 131.76 L 105.50 131.50 L 105.50 124.50 L 105.50 117.50 L 174.25 117.24 L 243.00 116.99 L 243.00 104.69 C243.00,96.47 243.40,92.00 244.20,91.20 C245.53,89.87 254.79,89.58 256.72,90.80 C257.54,91.33 258.03,95.61 258.22,104.04 L 258.50 116.50 L 278.00 117.00 L 297.50 117.50 L 297.50 124.50 L 297.50 131.50 L 278.00 132.00 L 258.50 132.50 L 258.23 151.97 C258.08,162.68 258.17,172.00 258.43,172.68 C258.75,173.52 262.30,172.22 269.70,168.53 C282.62,162.09 287.69,160.51 300.82,158.88 C309.52,157.79 312.01,157.85 320.64,159.37 C352.47,164.97 374.63,181.57 387.52,209.47 C391.66,218.44 392.66,222.13 394.76,236.29 C396.14,245.53 396.19,248.60 395.12,257.79 C394.44,263.68 393.50,269.62 393.03,271.00 C392.57,272.38 391.44,275.98 390.54,279.00 C386.51,292.44 377.57,308.73 366.13,323.50 C357.65,334.45 333.66,357.64 320.98,367.16 C308.74,376.36 287.30,390.23 280.26,393.52 C277.93,394.61 276.02,395.84 276.01,396.25 C276.01,396.66 275.59,397.00 275.09,397.00 C274.59,397.00 271.02,398.79 267.15,400.98 C263.28,403.17 258.50,405.87 256.53,406.98 C252.55,409.22 250.48,409.37 247.50,407.65 ZM 257.81 392.37 C260.39,390.93 265.71,388.00 269.64,385.87 C278.66,380.96 288.14,375.38 289.71,374.03 C290.37,373.47 291.10,373.00 291.32,373.00 C292.38,373.00 308.49,361.91 316.50,355.66 C325.98,348.27 344.14,330.62 352.68,320.50 C361.31,310.27 375.00,287.06 375.00,282.65 C375.00,281.81 375.40,280.87 375.89,280.57 C376.38,280.27 377.02,278.55 377.31,276.76 C377.60,274.97 378.55,270.12 379.42,266.00 C387.35,228.35 367.49,190.96 332.00,176.73 C323.83,173.46 320.89,172.89 309.50,172.36 C288.33,171.38 274.26,175.71 257.70,188.30 C253.94,191.16 250.64,193.41 250.38,193.31 C250.11,193.20 248.23,191.73 246.20,190.04 C239.17,184.18 233.20,180.80 221.50,176.02 C212.48,172.35 188.57,171.40 177.91,174.29 C160.66,178.97 146.04,188.53 136.25,201.53 C131.07,208.40 130.08,210.12 126.25,219.00 C116.31,242.03 118.15,267.76 131.62,294.41 C142.58,316.08 164.03,339.82 189.50,358.47 C191.70,360.08 193.73,361.69 194.00,362.05 C194.27,362.41 194.95,362.88 195.50,363.10 C196.05,363.32 200.43,366.09 205.24,369.25 C210.05,372.41 214.29,375.00 214.66,375.00 C215.04,375.00 216.05,375.63 216.92,376.40 C217.79,377.17 220.52,378.90 223.00,380.25 C225.48,381.60 230.63,384.40 234.45,386.48 C238.27,388.55 243.22,391.30 245.45,392.58 C250.66,395.58 252.12,395.56 257.81,392.37 Z" fill="rgba(0,0,0,1)"/>
</g>
</svg>